PathFileType        4      (X/Y/Z)      C:\Users\pc\Desktop\IMUTRC\Sujet_03\Sujet_03_velo_80.trc         
DataRate	CameraRate	NumFrames	NumMarkers	Units	OrigDataRate	OrigDataStartFrame	OrigNumFrames
60.0	60.0	4	64	mm	60.0	586	936
Frame#	Time	pHipOrigin			pRightASI			pLeftASI			pRightCSI			pLeftCSI			pRightIschialTub			pLeftIschialTub			pSacrum			pL5SpinalProcess			pL3SpinalProcess			pT12SpinalProcess			pIJ			pT4SpinalProcess			pT8SpinalProcess			pPX			pC7SpinalProcess			pTopOfHead			pRightAuricularis			pLeftAuricularis			pBackOfHead			pRightAcromion			pLeftAcromion			pRightArmLatEpicondyle			pRightArmMedEpicondyle			pLeftArmLatEpicondyle			pLeftArmMedEpicondyle			pRightUlnarStyloid			pRightRadialStyloid			pRightOlecranon			pLeftUlnarStyloid			pLeftRadialStyloid			pLeftOlecranon			pRightTopOfHand			pRightPinky			pRightBallHand			pLeftTopOfHand			pLeftPinky			pLeftBallHand			pRightGreaterTrochanter			pRightKneeLatEpicondyle			pRightKneeMedEpicondyle			pRightPatella			pLeftGreaterTrochanter			pLeftKneeLatEpicondyle			pLeftKneeMedEpicondyle			pLeftPatella			pRightTibialTub			pRightLatMalleolus			pRightMedMalleolus			pLeftTibialTub			pLeftLatMalleolus			pLeftMedMalleolus			pRightHeelFoot			pRightFirstMetatarsal			pRightFifthMetatarsal			pRightPivotFoot			pRightHeelCenter			pRightToe			pLeftHeelFoot			pLeftFirstMetatarsal			pLeftFifthMetatarsal			pLeftPivotFoot			pLeftHeelCenter			pLeftToe			
		X1	Y1	Z1	X2	Y2	Z2	X3	Y3	Z3	X4	Y4	Z4	X5	Y5	Z5	X6	Y6	Z6	X7	Y7	Z7	X8	Y8	Z8	X9	Y9	Z9	X10	Y10	Z10	X11	Y11	Z11	X12	Y12	Z12	X13	Y13	Z13	X14	Y14	Z14	X15	Y15	Z15	X16	Y16	Z16	X17	Y17	Z17	X18	Y18	Z18	X19	Y19	Z19	X20	Y20	Z20	X21	Y21	Z21	X22	Y22	Z22	X23	Y23	Z23	X24	Y24	Z24	X25	Y25	Z25	X26	Y26	Z26	X27	Y27	Z27	X28	Y28	Z28	X29	Y29	Z29	X30	Y30	Z30	X31	Y31	Z31	X32	Y32	Z32	X33	Y33	Z33	X34	Y34	Z34	X35	Y35	Z35	X36	Y36	Z36	X37	Y37	Z37	X38	Y38	Z38	X39	Y39	Z39	X40	Y40	Z40	X41	Y41	Z41	X42	Y42	Z42	X43	Y43	Z43	X44	Y44	Z44	X45	Y45	Z45	X46	Y46	Z46	X47	Y47	Z47	X48	Y48	Z48	X49	Y49	Z49	X50	Y50	Z50	X51	Y51	Z51	X52	Y52	Z52	X53	Y53	Z53	X54	Y54	Z54	X55	Y55	Z55	X56	Y56	Z56	X57	Y57	Z57	X58	Y58	Z58	X59	Y59	Z59	X60	Y60	Z60	X61	Y61	Z61	X62	Y62	Z62	X63	Y63	Z63	X64	Y64	Z64	
586	9.75	0.0	1249.98473	7.653948992887842E-14	101.42661000000001	1329.69357	130.3066200000001	78.43811999999998	1333.50573	-143.1871099999999	71.91123	1406.86096	109.85957000000009	52.908179999999994	1409.98	-115.92436999999991	-63.88258999999999	1206.72247	61.62995000000008	-73.41299	1208.28199	-51.29089999999992	-60.59027	1287.18219	5.602720000000082	0.34656000000000003	1376.59471	1.0396800000000843	69.19651	1474.90227	-6.757919999999914	133.6567	1563.79495	-15.537449999999913	402.47186	1594.75433	-41.29841999999992	282.44653	1701.43709	-36.446579999999905	206.66537	1644.31243	-26.107529999999915	302.31598	1512.38853	-27.204969999999925	328.82783	1734.53359	-41.298419999999915	575.34762	1833.47652	-95.93939999999992	512.73575	1776.17857	-4.2742399999999225	475.94262	1774.96561	-143.88022999999993	463.11989	1822.27107	-66.25074999999991	341.82384	1731.64559	171.08520000000007	312.13518	1690.98253	-253.91307999999992	433.2002	1445.32914	163.69191000000006	412.57987	1438.05137	107.20261000000006	408.47891	1417.25777	-239.87738999999993	396.75362	1412.81024	-180.55783999999994	514.00647	1200.54215	136.77574000000007	563.6801	1221.278	137.58438000000007	396.00274	1437.58929	137.29558000000006	507.71063	1179.74854	-219.19929999999994	555.99801	1203.48791	-221.33641999999995	375.72897	1409.17136	-211.40169999999995	717.61057	1118.46515	199.56089	622.4798	1116.55907	168.65928000000002	568.47418	1170.44917	136.54470000000006	684.74511	1083.69361	-317.39134	595.67915	1091.14466	-272.39628	555.36265	1147.865	-227.63225999999997	25.18337000000001	1215.27095	162.8832700000001	221.68298	856.63895	106.74053000000005	222.02954	862.18391	26.91617000000004	259.63132	883.61288	66.01971000000005	6.064799999999989	1243.22681	-170.4498399999999	381.38945	1082.07633	-230.11593999999997	399.41058	1079.30385	-152.25542999999996	405.47538	1122.97043	-190.43480999999997	260.84428	808.52485	62.034270000000035	33.38530000000001	452.72309	69.60083000000003	34.88706	456.59301	2.8880000000000257	422.28355	1030.43887	-189.62616999999997	171.77832	691.56079	-160.68838999999997	182.29064	696.00832	-94.78419999999997	-45.11058	405.07106	10.050240000000029	103.10165	322.41647	-22.988489999999985	88.54612	304.22206	55.21859000000001	115.46229	300.92974	15.76849000000001	-10.85888	383.93089	11.494250000000022	185.46744	255.41484	18.194410000000005	120.25637	630.45069	-80.86403999999997	283.65949	577.31146	-100.27140999999999	248.54139	556.22905	-170.91192	286.72077	558.30841	-142.0319	155.48999	616.06844	-94.09107999999998	359.32512	526.71368	-168.65928	
587	9.767	0.0	1249.98473	7.653948992887842E-14	101.31109000000001	1329.86685	130.3066200000001	78.43811999999998	1333.44797	-143.1871099999999	71.73795	1407.03424	109.74405000000009	52.85041999999999	1409.98	-116.03988999999991	-63.88258999999999	1206.66471	61.62995000000008	-73.35523	1208.16647	-51.29089999999992	-60.59027	1287.12443	5.544960000000082	0.28880000000000006	1376.59471	0.9819200000000843	69.13875	1474.96003	-6.815679999999914	133.6567	1563.79495	-15.364169999999913	402.58738	1594.52329	-40.258739999999925	282.61981	1701.32157	-35.811219999999906	206.78089	1644.25467	-25.703209999999913	302.31598	1512.27301	-26.569609999999926	329.05887	1734.36031	-40.48977999999992	575.92522	1832.84115	-94.49539999999992	513.08231	1775.60097	-3.0035199999999227	476.46246	1774.67681	-142.6672599999999	463.63973	1821.92451	-64.98002999999991	341.47728	1731.29903	171.9516000000001	312.8283	1690.98253	-253.16219999999993	433.489	1445.32914	163.80743000000007	413.04195	1438.16689	107.20261000000006	409.17203	1417.31553	-239.41530999999995	397.38898	1412.81024	-180.15351999999993	514.64183	1200.71543	136.77574000000007	564.31546	1221.50904	137.64214000000007	396.3493	1437.58929	137.35334000000006	508.28823	1179.74854	-219.31481999999994	556.57561	1203.43015	-221.39417999999995	376.42209	1409.22912	-210.99737999999994	718.30369	1118.75395	199.67641	623.17292	1116.84787	168.71704000000003	569.1673	1170.62245	136.60246000000006	685.20719	1083.75137	-317.62238	596.19899	1091.14466	-272.62732	555.94025	1147.80724	-227.80553999999998	25.64545000000001	1216.13735	163.11431000000007	230.28922	861.72183	109.33973000000005	230.75131	866.86247	29.51537000000004	267.77548	889.33113	68.61891000000004	6.122559999999989	1242.76473	-170.3920799999999	378.67473	1074.97185	-229.13401999999996	396.46482	1071.96833	-151.21574999999999	403.39602	1115.46163	-189.45288999999997	266.79356	812.04821	64.92227000000003	22.584170000000004	467.45189	66.36627000000003	25.52993	471.55285	-0.34655999999997267	421.87923	1024.37407	-189.85720999999998	185.69848	675.04143	-166.23335999999998	196.32633	678.73807	-100.27140999999997	-56.48931	422.68787	6.122560000000029	89.12372	335.06591	-25.529929999999986	73.29747	317.50686	52.619380000000014	100.44469	313.29038	13.342570000000014	-22.98849	400.3925	7.913120000000027	168.83256	265.46508	16.461610000000007	135.90934	611.15884	-87.79523999999998	301.16078	563.6801	-106.39396999999998	267.37116	542.36665	-177.61208	305.20398	545.31241	-148.38551	171.72056	598.10507	-100.90676999999997	379.02129	516.49016	-174.78184	
588	9.783	0.0	1249.98473	7.653948992887842E-14	101.25333000000002	1330.21341	130.1333400000001	78.32259999999998	1333.27469	-143.3603899999999	71.56467	1407.32304	109.45525000000009	52.61937999999999	1409.80672	-116.32868999999991	-63.82482999999999	1206.72247	61.745470000000076	-73.29747	1207.99319	-51.17537999999992	-60.64803	1287.06667	5.487200000000082	0.17328000000000005	1376.59471	0.6931200000000842	68.96547	1475.01779	-7.0467199999999135	133.48342	1563.85271	-15.479689999999913	402.52962	1594.52329	-39.45009999999992	282.61981	1701.37933	-35.40689999999991	206.72313	1644.31243	-25.587689999999913	302.20046	1512.27301	-26.107529999999926	329.11663	1734.41807	-39.85441999999991	576.44506	1832.26355	-92.99363999999991	513.14007	1775.08113	-1.7327999999999226	476.92454	1774.50353	-141.5120599999999	464.04405	1821.69347	-63.76706999999991	340.84192	1731.18351	172.5292000000001	313.46366	1691.32909	-252.6423599999999	433.72004	1445.56018	163.63415000000006	413.44627	1438.57122	106.97157000000006	409.86515	1417.71985	-238.95322999999993	397.90882	1413.09904	-179.69143999999994	515.27719	1201.11975	136.66022000000007	564.89306	1221.97112	137.58438000000007	396.69586	1437.87809	137.18006000000005	508.69255	1180.03734	-219.54585999999995	556.97993	1203.66119	-221.50969999999995	376.99969	1409.57568	-210.53529999999995	718.88129	1119.27379	199.67641	623.80828	1117.30995	168.71704000000003	569.7449	1171.08453	136.54470000000006	685.49599	1084.09793	-318.08446	596.48779	1091.49122	-273.03164	556.28681	1148.09604	-228.03657999999996	26.68513000000001	1217.35031	163.34535000000008	241.20587	868.47976	111.88117000000004	241.43691	873.0428	31.99905000000004	277.82573	896.83993	70.87155000000004	5.833759999999989	1241.78281	-170.3343199999999	373.70737	1063.82416	-228.32537999999997	391.49746	1060.82064	-150.40710999999996	399.5261	1103.90962	-188.87528999999998	274.70669	817.24661	67.69475000000004	13.862410000000004	485.0687	63.18947000000003	18.25217	489.28518	-3.407839999999972	419.39555	1014.38158	-190.49256999999997	197.48153	655.51854	-172.06711999999996	208.45593	658.34878	-106.16292999999997	-65.78867	443.07716	2.310400000000031	77.10964	350.66112	-28.18688999999998	60.07043	333.62191	49.84690000000001	87.33316	328.48127	10.801120000000013	-33.0965	419.68435	4.389760000000027	154.10375	278.46109	14.440010000000008	149.48295	588.97899	-95.07299999999996	316.35166	546.98745	-112.05444999999999	284.17933	525.3852	-183.96568	321.49231	529.25512	-154.16151	185.87176	577.2537	-107.83796999999998	396.58034	503.08983	-179.92248	
589	9.8	0.0	1249.98473	7.653948992887842E-14	101.31109000000001	1330.67549	129.84454000000008	78.14931999999999	1332.92813	-143.64918999999992	71.56467	1407.6696	108.93541000000009	52.446099999999994	1409.51792	-116.79076999999991	-63.76706999999999	1206.89575	61.86099000000008	-73.29747	1207.81991	-51.00209999999992	-60.64803	1287.06667	5.429440000000082	0.05776000000000002	1376.65247	0.3465600000000843	68.90771	1475.01779	-7.451039999999914	133.42566	1563.85271	-15.826249999999913	402.52962	1594.52329	-38.81473999999992	282.61981	1701.37933	-35.17585999999991	206.66537	1644.31243	-25.703209999999913	302.1427	1512.27301	-25.876489999999926	329.17439	1734.41807	-39.39233999999991	576.9649	1831.80147	-91.60739999999991	513.19783	1774.67681	-0.6353599999999228	477.32886	1774.44577	-140.5301399999999	464.44837	1821.52019	-62.727389999999914	340.26431	1731.06799	172.93352000000007	314.09902	1691.73341	-252.35354999999993	434.00884	1445.79122	163.40311000000005	413.90835	1438.97554	106.62501000000006	410.55827	1418.12417	-238.72218999999996	398.3709	1413.38784	-179.57591999999994	515.79703	1201.52407	136.37142000000006	565.4129	1222.37544	137.29558000000006	397.04242	1438.16689	136.83350000000004	509.03911	1180.32614	-220.00793999999993	557.38425	1203.89223	-221.97177999999994	377.63505	1409.92224	-210.36201999999994	719.45889	1119.73587	199.38761	624.32812	1117.71427	168.42824000000002	570.3225	1171.48885	136.25590000000005	685.78479	1084.38673	-318.71983	596.77659	1091.78002	-273.667	556.63337	1148.32708	-228.61417999999998	27.89809000000001	1218.85208	163.5186300000001	253.21996	876.5084	114.13381000000004	253.04668	880.43608	34.25170000000004	288.80013	905.67721	72.77763000000004	5.25615999999999	1240.22328	-170.2765599999999	366.94945	1049.44192	-226.88137999999998	384.73954	1046.66944	-148.96310999999997	394.09666	1089.00754	-187.89336999999998	283.54397	823.88902	69.94739000000004	7.393280000000003	504.47607	60.87907000000003	12.82273	508.69255	-5.6604799999999695	414.71699	1001.55886	-190.20376999999996	206.72313	634.20509	-177.26551999999998	217.98634	636.22669	-111.36132999999997	-73.06643	464.91045	-0.288799999999967	67.17491	368.22017	-30.208489999999983	49.21154	351.64304	47.70978000000002	76.53203	345.69376	8.779520000000016	-41.06738	440.47796	1.9060800000000293	141.7431	293.65197	12.707210000000009	160.45735	565.00858	-101.71540999999999	328.77007	528.38872	-117.07956999999999	298.15726	506.72871	-189.62617	335.00815	511.34951	-159.35991	197.36601	554.55401	-114.13380999999998	411.13587	487.84118	-184.48552	
